<svg width="104" height="103" viewBox="0 0 104 103" fill="none" xmlns="http://www.w3.org/2000/svg">
<path d="M103.144 51.2161C103.356 53.377 103.316 55.5466 102.946 57.748C102.861 58.2483 102.703 58.1784 102.648 58.3801C102.549 58.7494 102.626 59.4086 102.611 59.4989C102.523 60.052 102.273 59.7878 102.25 59.8602C101.992 60.6611 102.358 60.4825 102.238 61.2734C102.078 62.3055 101.724 63.5967 101.378 64.8045C101.254 65.228 101.1 64.9826 100.852 65.8959C100.685 66.5393 100.272 68.5886 99.6763 69.3798C99.5801 69.3495 99.518 69.1983 99.4379 69.1151C99.3486 70.5282 99.1577 70.988 98.2715 72.7014C98.1295 72.971 98.1648 73.306 97.8724 73.7628C97.5772 74.2176 97.3349 74.1224 96.8421 75.0751C96.6659 75.4121 96.7233 75.7049 96.4453 76.2228C95.6741 77.7083 93.7534 80.2464 92.929 81.3273C91.3279 83.4737 90.6209 84.8019 88.9099 86.4828C88.7779 86.6112 88.9048 86.1765 88.6711 86.4186C88.436 86.6619 88.3854 87.1052 88.3311 87.17C87.7539 87.8776 86.1162 88.9278 85.771 89.2877C84.9317 90.1779 85.9198 89.4784 84.6672 90.6236C83.4658 91.7135 81.4731 92.7784 80.1169 93.605C78.5481 94.5596 78.2936 95.3085 76.8236 95.5434C72.6208 97.9972 68.0376 99.8405 63.3005 100.996C63.2891 100.888 63.2798 100.78 63.2709 100.672C62.9158 100.833 62.5574 100.991 62.1957 101.144C62.2359 101.054 62.2728 100.964 62.3126 100.874C60.6195 101.555 59.039 101.99 56.9205 102.137C56.879 102.14 56.9646 101.916 56.9298 101.914C56.4499 101.926 55.9417 102.138 55.5203 102.132C54.5 102.129 52.7783 101.722 53.5518 102.263C52.8614 102.257 52.1343 102.266 51.3911 102.269C49.6082 102.28 47.756 102.25 46.1905 102.011C45.2243 101.863 44.9806 101.486 44.527 101.407C44.0741 101.325 44.2655 101.644 44.1016 101.632C43.1142 101.564 41.5073 101.25 41.4089 100.894C41.1907 100.983 40.9575 101.069 40.7323 101.155C40.9153 100.844 37.9218 100.29 37.1591 100.03C37.0193 99.9878 37.0445 99.8305 36.9389 99.8009C35.7643 99.4672 35.3985 99.6047 34.3748 99.3356C34.0165 99.238 34.6493 99.1726 33.7172 98.9603C33.6367 98.9394 33.5873 99.1987 32.5255 98.7808C30.8286 98.1329 27.6275 96.7224 25.825 95.5055C25.6771 95.4081 26.2778 95.4437 25.5488 95.0909C25.2859 94.9606 25.3065 95.2018 24.6968 94.8325C22.3316 93.3952 20.0917 91.4806 17.8544 89.7742C18.0766 89.677 18.9866 90.1441 17.7687 89.2645C17.5745 89.1228 17.5787 89.3873 17.4934 89.3213C16.8032 88.7814 16.3442 88.1633 15.6183 87.5554C15.4038 87.3755 15.2462 87.4354 14.9741 87.2125C14.5729 86.8821 14.5714 86.567 14.0939 86.1955C13.3509 85.6104 13.0904 85.6367 12.636 84.4932C8.33346 79.5353 4.91492 73.7693 2.99516 67.4962C2.28299 65.7366 1.68622 64.0796 1.21883 62.1496C1.0839 61.578 1.32965 61.4162 1.06842 60.5225C1.00613 60.3276 0.468022 58.894 0.998014 58.6032C0.891379 58.2044 0.855408 57.9469 0.781557 57.5996C0.733219 57.876 0.687435 58.1617 0.641233 58.4286C0.522518 56.933 0.20965 55.738 0.0321741 54.4097C-0.0920196 53.4304 0.186169 54.1138 0.132769 53.5171C0.0843496 52.9212 0.0201833 52.6464 0.296406 51.8922C0.155993 51.6508 0.113844 51.4401 0.113832 51.2C0.114254 50.8587 0.19809 50.4596 0.219621 49.8239C0.222967 49.7075 0.114373 49.031 0.170628 48.4698C0.211585 48.0636 0.423703 47.956 0.438419 47.3136C0.437518 47.2078 0.300752 45.8374 0.332074 45.3967C0.368099 44.7154 0.781628 43.6909 0.805669 43.565C1.14214 41.7005 1.04111 40.9325 1.75614 39.7142C1.56512 39.3933 1.68118 38.2645 1.95337 37.3921C2.27937 36.2827 3.50561 34.2809 3.09936 33.8054C3.79113 32.6444 3.59097 32.7239 4.18778 31.2688C4.70904 29.9233 6.6047 26.6417 7.18944 25.6444C7.74864 24.6322 7.19988 24.9604 7.40192 24.5431C7.73969 23.8608 7.7187 24.3289 7.99004 23.8888C8.76271 22.6483 9.44948 21.5783 10.2069 20.399C10.3798 20.4345 10.5565 20.4666 10.7304 20.5012C10.7313 20.4118 10.7322 20.3226 10.7335 20.2331C10.9162 19.9961 11.1195 19.7295 11.2952 19.5153C9.29698 20.931 12.7266 17.7496 13.702 16.7929C14.4884 15.9425 15.6152 14.3307 16.5188 13.4091C16.7363 13.1849 16.6952 13.4571 16.7396 13.4109C17.2613 12.87 17.2663 12.7029 18.0443 12.0554C18.4578 11.7144 19.0156 11.5341 19.4224 11.2137C22.4113 8.86198 25.4208 6.69661 28.8288 4.9993C29.4095 4.71091 30.024 4.71635 30.5191 4.50078C31.2284 4.19356 31.5949 3.80442 32.2697 3.52853C32.9429 3.25209 34.0152 3.13072 34.4625 2.93429C34.9135 2.73669 34.0358 2.77481 34.9108 2.54684C35.313 2.44453 34.6807 2.85406 35.1661 2.69665C36.6761 2.20178 38.7888 1.37626 40.4981 1.24221C40.4131 1.20372 40.3022 1.17677 40.201 1.14478C41.9753 0.775326 43.573 0.638797 45.4213 0.440111C46.0722 0.368498 47.22 0.0989723 47.8642 0.0589956C48.5061 0.0172619 48.809 0.180313 49.317 0.163983C49.5266 0.158245 49.4388 0.00255823 49.5801 0.000724792C50.2701 -0.00660837 50.8418 0.0390235 51.3911 0.0955462C52.2497 0.185485 53.0429 0.297282 54.1628 0.336178C60.9148 0.566434 67.8523 2.24231 74.086 5.22096C74.3366 5.34054 74.5972 5.23903 74.9738 5.3984C75.5531 5.64537 75.4927 5.82414 75.5635 5.86849C76.0237 6.16244 75.9104 5.90565 76.5524 6.26281C77.971 7.04292 80.0858 8.57115 81.387 9.51023C84.3969 11.66 86.8436 13.6232 89.3858 16.244C89.5682 16.4335 89.2681 16.4672 89.5702 16.8057C91.6493 19.23 92.2962 19.5987 94.4878 22.9418C96.7327 26.2598 99.8176 33.1826 100.882 37.7234C100.882 37.7235 100.881 37.7237 100.881 37.7238C101.707 39.019 102.019 40.9341 101.939 42.5398C99.2961 33.8752 96.1786 25.7547 89.947 18.4109C83.3867 10.7019 73.6057 5.47779 63.951 2.93095C63.0427 2.68735 62.7311 2.35113 61.9372 2.23361C61.8033 2.21443 62.1029 2.4815 61.6936 2.41529C58.3516 1.8757 54.8674 1.41286 51.3911 1.33781C49.0349 1.28525 46.7101 1.40705 44.4811 1.76731C43.0011 2.01619 42.7991 2.28051 41.5258 2.58696C41.7309 2.43874 41.8584 2.30226 42.0376 2.16068C36.028 2.96446 30.2839 5.33738 25.0478 8.52681C24.8111 8.67083 24.6657 8.50577 24.4144 8.65542C23.9112 8.9551 23.5775 9.46222 23.163 9.75502C22.6223 10.139 22.4292 10.0644 21.9376 10.4319C21.6991 10.6129 21.8678 10.692 21.3311 11.0571C21.2864 11.088 21.1524 10.969 20.8215 11.2501C19.9067 12.0101 18.1574 13.686 17.4795 14.3896C16.6013 15.2743 15.7136 15.8018 15.3693 16.1308C14.4478 17.0224 14.6647 17.1889 13.9442 17.9906C8.87232 23.7329 4.94174 30.2103 2.8268 37.8538C2.68623 38.3377 2.53633 40.1812 2.34966 41.0785C2.27686 41.374 1.91232 42.9371 1.87391 43.1772C1.69396 44.1371 1.41109 44.9485 1.31251 45.485C1.11815 46.5249 1.31461 47.7095 1.3119 48.2806C1.30094 49.1315 1.24606 50.5347 1.23881 51.2C1.2368 51.3156 1.23544 51.4081 1.23469 51.4707C1.22742 52.4849 0.874662 52.1576 0.976178 52.8847C1.00862 53.0986 1.26463 52.8662 1.29782 53.6174C1.32793 54.2489 1.14482 54.5202 1.13969 54.9561C1.13413 55.3943 1.51707 56.1539 1.53831 56.4212C1.64803 57.8304 1.52646 58.4682 1.77654 59.9956C1.89442 61.2801 3.57279 66.9496 3.87974 67.3622C4.90551 69.3195 3.57533 65.9299 3.5537 65.7212C3.30006 64.6414 3.46631 64.7681 2.95003 63.7586C3.39363 62.6478 1.58717 59.4977 2.35722 58.4758C1.64715 57.6657 1.84506 56.8497 1.87276 55.8916C1.92117 54.563 1.66369 55.5945 1.58939 54.6287C1.5598 54.2439 1.7692 53.131 1.72012 52.5638C1.67389 52.0517 1.50106 51.8072 1.45819 51.2C1.45353 51.1321 1.45058 51.0598 1.44978 50.9822C1.43634 49.6032 1.58336 48.5069 1.9129 47.378C1.82111 47.1607 1.72947 46.9562 1.64014 46.7396C1.82537 45.963 2.0302 45.1754 2.25137 44.4108C2.14076 44.523 2.02968 44.6361 1.91982 44.7501C1.93598 44.5178 1.95461 44.2852 1.97476 44.0536C2.2247 43.3117 2.47641 42.6001 2.7679 41.8554C2.65728 39.6427 3.00558 40.343 3.34746 39.2065C3.7058 38.0718 3.59506 37.3207 3.86469 36.4374C4.23761 35.2455 4.38557 34.6945 4.84894 33.5234C5.11757 32.8438 5.87264 31.8211 5.04154 32.5771C5.83874 30.4411 7.12398 27.5679 8.34564 25.9134C8.70114 25.425 8.42389 26.1922 8.49292 26.1134C8.82701 25.721 8.83771 25.2269 9.14761 24.798C9.6565 24.0821 10.7691 22.7849 11.2111 22.2615C11.8322 21.5002 12.5421 20.0857 12.6285 19.9479C13.0891 19.1741 13.4516 19.1651 13.6214 18.9363C14.601 17.6385 14.7839 17.3057 15.5367 17.3172C15.6378 16.8456 16.6005 15.3017 17.1964 15.3081C16.9477 15.0329 18.0607 14.072 18.6877 13.4156C18.8844 13.3861 19.0826 13.3556 19.2792 13.3294C20.2726 11.5842 23.617 9.70604 25.7822 8.53495C25.8361 8.5047 25.7893 8.21006 26.1432 8.07399C26.1663 8.06651 26.1957 8.19231 26.4198 8.08054C27.1497 7.68375 30.0756 6.5289 30.4073 6.40298C31.6084 5.85788 31.7461 5.58417 32.4822 5.25494C33.457 4.83102 33.6693 4.94917 34.6068 4.57806C35.0459 4.40794 35.3726 4.03354 36.0957 3.83548C36.5238 3.71942 36.6235 3.88999 36.9601 3.80309C38.1584 3.49907 39.0177 3.1479 40.141 3.14064C40.2823 2.4806 40.9003 2.80228 41.442 2.739C43.631 2.47089 46.3312 1.87562 48.2319 1.82296C49.3094 1.78703 50.3495 1.79398 51.3911 1.83585C56.0699 2.03685 60.3519 2.89266 64.8258 4.23071C65.7098 4.50149 66.0135 4.27358 66.9381 4.59792C67.3528 4.74624 67.706 5.10115 68.3747 5.35164C68.9133 5.55367 69.7226 5.74905 70.3841 6.0294C70.56 6.10373 70.4948 6.30177 70.7515 6.4143C72.6951 7.26989 74.612 8.08512 76.5172 9.10516C77.2232 9.48401 77.4917 9.98619 77.6336 9.50706C77.8305 9.77049 78.025 10.0178 78.2006 10.272C79.2851 10.6262 79.8508 11.397 81.0784 12.2314C81.2111 12.3179 82.3075 12.7516 82.6464 13.3472C82.7903 13.2444 82.8061 13.0691 82.919 12.9615C83.4543 13.3156 84.0638 14.1068 84.367 14.4086C84.6715 14.7089 85.0322 14.7408 85.1288 14.8273C85.4929 15.159 85.2077 15.2937 85.232 15.3228C86.6795 17.1053 86.593 16.8306 87.865 17.5386C88.1951 17.7123 89.495 19.6954 90.0511 19.856C89.955 19.9615 89.7759 19.938 89.648 19.9943C90.0649 20.5622 90.472 21.1434 90.8653 21.7301C90.8843 21.5291 90.8838 21.3034 90.9089 21.1115C91.6914 22.3338 92.6393 23.1439 93.2801 24.1512C93.6432 24.728 93.3434 24.8181 93.6095 25.1212C93.6615 25.1809 93.7642 24.9618 93.8998 25.1511C94.9934 26.7044 95.2115 27.5416 96.0218 29.249C96.3933 30.0517 97.0616 30.6036 97.3384 31.8774C97.3662 31.9953 97.5338 33.2615 98.2369 33.8249C98.1845 34.1082 98.1846 34.3366 98.129 34.5505C99.2912 35.7951 98.5341 35.6184 98.9707 37.6675C99.2229 38.7301 100.129 42.2568 100.352 43.4308C100.504 44.1213 100.769 44.0696 100.798 44.1935C100.963 44.9347 100.7 44.9686 100.823 45.6579C100.944 46.3496 101.319 47.1982 101.338 47.9253C101.35 48.4794 100.999 48.0651 101.154 48.8695C101.186 49.0364 101.446 48.543 101.371 49.405C101.363 49.5416 101.089 50.9196 101.018 51.2C100.854 50.4705 100.555 48.4217 100.418 47.65C99.9708 33.8019 83.7188 10.8329 69.6671 6.7277C68.4776 6.22581 67.7746 5.66975 66.9788 5.3708C66.1807 5.07749 66.7798 5.55224 66.0553 5.29422C65.3301 5.04012 64.848 4.70495 64.1544 4.49809C60.0283 3.27052 55.7047 2.59698 51.3911 2.54153C50.8244 2.53401 50.2606 2.53694 49.7002 2.55018C48.447 2.58164 47.4481 2.86855 46.3217 2.98406C45.879 3.03079 45.8344 2.75918 45.519 2.79877C42.1238 3.23469 39.097 4.19248 35.8894 5.23371C34.5594 5.66603 33.0552 6.00049 31.7651 6.54596C30.7013 6.99301 29.6969 7.65861 28.7862 8.1424C28.2925 8.40541 27.9327 8.36532 27.7457 8.44969C27.0988 8.74836 27.4423 8.85102 27.1286 9.03024C26.2685 9.52866 25.6823 9.52526 24.9035 10.0529C24.5996 10.2617 24.7464 10.4001 24.3208 10.7207C23.7829 11.1306 23.887 10.8403 23.4852 11.1104C23.4609 11.1264 23.619 11.1877 23.4128 11.3393C22.0825 12.313 20.5398 13.6738 19.3479 14.7164C16.8764 16.8603 14.4666 19.0695 12.5519 21.483C12.0709 22.0938 12.3449 22.0409 12.2049 22.2428C11.541 23.2196 11.1157 23.4429 10.4974 24.5222C10.3942 24.7026 10.1587 25.5352 9.69814 26.1786C9.44859 26.5255 9.0672 26.8653 8.85487 27.1655C8.64298 27.4659 8.81847 27.6308 8.60911 28.0148C8.23463 28.7162 8.19411 28.4332 7.70433 29.4663C7.50401 29.8846 7.04454 31.358 6.5788 32.441C5.80641 34.2006 4.81652 36.4002 4.23015 38.609C4.02658 39.3683 4.02037 40.3946 3.78436 41.5804C3.48007 43.0199 3.04446 45.7174 2.93726 47.2258C2.87533 47.9972 2.62533 48.0393 2.60804 48.1312C2.50301 48.7235 2.79783 48.5009 2.76708 48.8953C2.72654 49.4371 2.50405 49.9413 2.48269 50.4416C2.46939 50.7606 2.67716 50.8129 2.67815 50.8818C2.68033 50.9883 2.6827 51.0943 2.68526 51.2C2.7488 53.6186 2.88333 55.7692 3.24325 58.1622C5.22228 71.5842 13.322 83.83 24.4133 91.3623C25.3431 91.9924 25.2404 92.2343 26.1082 92.7222C26.9812 93.2079 28.0815 93.1809 28.5031 94.1129C28.5856 94.0143 28.6256 93.934 28.7026 93.8452C30.4216 94.9633 32.3704 95.6446 34.2365 96.3295C35.6208 96.8366 36.8607 97.2637 38.1649 97.6498C39.3249 97.985 39.1759 98.1698 40.2577 98.1383C43.8629 99.1237 47.6364 99.5734 51.3911 99.6797C52.8681 99.7219 54.3302 99.7131 55.7939 99.666C56.9603 99.0878 58.1346 99.25 59.8124 99.031C60.0182 99.0032 59.7704 98.8758 60.3759 98.7788C61.1319 98.6512 61.5836 98.8343 62.8504 98.5191C63.1909 98.4488 65.5749 97.5006 66.5095 97.3294C67.4544 97.1796 68.7745 96.791 69.7427 96.5482C69.5705 96.4971 69.3661 96.4633 69.1811 96.4173C69.63 96.2198 70.0759 96.0162 70.5186 95.805C70.6371 95.9007 70.7562 95.9961 70.8735 96.0929C71.0853 95.861 71.2947 95.6292 71.5017 95.3921C72.3521 95.7599 71.6885 95.8306 72.8588 95.0724C73.4425 94.6884 73.9868 94.5442 74.5796 94.1445C74.7928 93.9996 74.8384 93.7421 75.0709 93.5823C75.6401 93.1886 75.4291 93.6304 75.7991 93.4161C76.172 93.1971 76.5421 92.6208 77.2646 92.3274C76.8748 93.2273 78.7541 91.8137 78.5949 91.3896C78.8229 91.2339 79.0236 91.1171 79.2662 90.932C79.6541 91.9795 80.4083 90.5067 80.7688 90.0398C81.1367 89.5746 81.2935 89.8162 81.3937 89.7246C81.6803 89.4601 81.3834 89.5403 81.5942 89.3688C82.9866 88.2331 84.3751 87.24 85.6586 86.0005C85.8425 85.8221 85.5662 85.8657 85.7888 85.6669C86.0109 85.4677 86.3288 85.3785 86.6276 85.0515C86.7078 84.9639 86.6297 84.8377 86.7565 84.704C89.4118 81.9023 91.7318 79.018 93.7317 75.6068C93.9115 75.2972 93.8296 74.929 94.1658 74.3294C94.5013 73.7325 95.1852 72.9057 95.5684 72.1359C95.6702 71.9321 95.5038 71.7861 95.6348 71.5158C96.0785 70.5946 96.5838 69.849 96.9974 68.8633C97.6962 67.1942 98.1544 65.3613 98.7387 63.6203C98.8488 63.2885 99.0076 63.3886 99.1767 62.9122C99.4633 62.0876 99.1333 62.3461 99.1397 62.1678C99.1567 61.5853 99.5313 61.4788 99.5552 60.9159C99.5584 60.8302 99.3347 60.9084 99.3464 60.8335C99.5336 59.6775 100.018 59.6909 99.9558 58.4079C100.387 57.3412 100.214 59.2032 100.318 59.4222C100.588 59.9523 101.212 58.7736 101.441 58.0478C101.641 57.4226 101.418 57.3987 101.449 57.144C101.616 55.7943 101.707 53.7717 101.835 52.7478C101.916 52.1233 101.974 53.2553 102.056 52.9377C102.139 52.6217 101.978 52.412 102.166 52.0879C102.354 51.7655 102.889 51.0883 103.144 51.2161ZM19.116 90.1246C21.2374 90.8434 25.6333 94.0034 28.242 95.3792C30.3546 96.5736 32.0596 97.9787 31.971 96.8915C29.571 95.8515 27.6323 94.9685 25.284 93.4938C25.0353 93.3446 23.6441 92.3363 23.1676 91.9757C22.8969 91.7762 22.9801 91.6392 22.6089 91.3759C22.5279 91.3197 21.9593 91.1655 21.801 91.0395C21.2465 90.6192 19.8528 89.0851 19.6374 88.9024C19.0172 88.4115 19.0859 88.7964 18.7966 88.6063C17.8305 87.9543 17.9896 87.5911 17.0808 86.895C16.9197 86.7701 16.2012 86.5325 15.6382 85.8907C15.4092 85.6304 15.1286 85.0874 14.9446 84.8992C13.9368 83.8778 12.7275 82.7881 11.9478 81.7173C11.3124 80.8383 11.6938 80.9172 11.3822 80.4397C11.0727 79.9628 10.4382 79.5669 10.2032 79.2512C9.82639 78.7485 9.55323 78.0189 9.44801 77.8567C7.36492 74.6601 5.68896 71.6629 4.3536 68.2013C5.1016 70.6101 6.04351 72.9602 7.14217 75.2286C8.06336 76.3528 7.50203 75.8489 7.90335 76.7063C8.22875 77.3812 8.69805 77.3069 9.17763 78.1541C9.1772 78.1534 9.17678 78.1528 9.17634 78.1521C9.4228 78.5876 9.76924 79.6731 10.5028 80.4727C10.5299 80.5002 10.7682 80.4474 11.2507 81.0843C12.3313 82.5257 14.1954 84.5531 15.5775 86.0247C15.982 86.4583 15.7245 86.543 16.2053 87.0602C16.5584 87.4364 17.1406 87.687 17.7 88.2638C18.4014 88.9849 18.5274 89.5949 19.4009 89.6312C19.3229 89.814 19.1819 89.9382 19.116 90.1246ZM71.7497 96.9904C71.8875 96.9622 73.8635 96.6853 73.0786 96.3537C70.6727 97.2085 68.1669 98.3332 65.5609 98.9414C66.6118 99.2855 68.033 98.5796 69.7624 97.8476C69.7631 97.8473 69.7639 97.847 69.7646 97.8467C69.8466 97.8119 69.561 98.1018 70.0203 97.8876C70.2445 97.7838 71.0133 97.1979 71.7497 96.9904Z" fill="#96C300"/>
<path d="M22.0826 62.456C21.5919 62.456 21.1866 62.3386 20.8666 62.104C20.5466 61.8693 20.3546 61.56 20.2906 61.176C20.2266 60.7706 20.3226 60.3226 20.5786 59.832L30.2426 41.656V43.0639H19.8746C19.2986 43.0639 18.8506 42.9146 18.5306 42.6159C18.2319 42.3173 18.0826 41.9013 18.0826 41.368C18.0826 40.8133 18.2319 40.3866 18.5306 40.0879C18.8506 39.7893 19.2986 39.6399 19.8746 39.6399H32.2586C32.8346 39.6399 33.3039 39.7893 33.6666 40.0879C34.0293 40.3866 34.2106 40.8133 34.2106 41.368C34.2106 41.8373 34.1466 42.2533 34.0186 42.6159C33.8906 42.9573 33.7199 43.3306 33.5066 43.736L24.4186 61.112C24.1839 61.5813 23.8746 61.9226 23.4906 62.136C23.1279 62.3493 22.6586 62.456 22.0826 62.456ZM45.3661 62.52C43.6168 62.52 42.1128 62.2746 40.8541 61.784C39.6168 61.272 38.6568 60.536 37.9741 59.576C37.3128 58.616 36.9821 57.464 36.9821 56.12C36.9821 55.0533 37.1954 54.1146 37.6221 53.304C38.0701 52.472 38.6781 51.8 39.4461 51.288C40.2141 50.776 41.0888 50.456 42.0701 50.328V51C40.7048 50.7013 39.6061 50.0506 38.7741 49.048C37.9634 48.024 37.5581 46.808 37.5581 45.4C37.5581 44.1199 37.8781 43.0319 38.5181 42.136C39.1581 41.2186 40.0648 40.5253 41.2381 40.056C42.4114 39.5653 43.7874 39.32 45.3661 39.32C46.9661 39.32 48.3528 39.5653 49.5261 40.056C50.6994 40.5253 51.6061 41.2186 52.2461 42.136C52.8861 43.0319 53.2061 44.1199 53.2061 45.4C53.2061 46.3386 53.0141 47.2026 52.6301 47.992C52.2674 48.7813 51.7448 49.432 51.0621 49.944C50.4008 50.456 49.6221 50.7973 48.7261 50.968V50.328C50.2194 50.5413 51.4248 51.1706 52.3421 52.216C53.2808 53.24 53.7501 54.5413 53.7501 56.12C53.7501 57.464 53.4088 58.616 52.7261 59.576C52.0648 60.536 51.1048 61.272 49.8461 61.784C48.6088 62.2746 47.1154 62.52 45.3661 62.52ZM45.3661 59.32C46.8808 59.32 48.0221 59.032 48.7901 58.456C49.5581 57.8586 49.9421 56.984 49.9421 55.832C49.9421 54.68 49.5581 53.816 48.7901 53.24C48.0221 52.664 46.8808 52.376 45.3661 52.376C43.8728 52.376 42.7314 52.664 41.9421 53.24C41.1741 53.816 40.7901 54.68 40.7901 55.832C40.7901 56.984 41.1741 57.8586 41.9421 58.456C42.7314 59.032 43.8728 59.32 45.3661 59.32ZM45.3661 49.176C46.2194 49.176 46.9448 49.048 47.5421 48.792C48.1394 48.5146 48.5981 48.12 48.9181 47.608C49.2381 47.096 49.3981 46.4986 49.3981 45.816C49.3981 44.792 49.0354 43.992 48.3101 43.416C47.6061 42.8186 46.6248 42.52 45.3661 42.52C44.1074 42.52 43.1261 42.8186 42.4221 43.416C41.7181 43.992 41.3661 44.792 41.3661 45.816C41.3661 46.8613 41.7181 47.6826 42.4221 48.28C43.1261 48.8773 44.1074 49.176 45.3661 49.176ZM65.4816 61.944C65.2683 62.328 65.0016 62.5733 64.6816 62.68C64.3829 62.808 64.0736 62.8293 63.7536 62.744C63.4549 62.68 63.1989 62.5306 62.9856 62.296C62.7723 62.0826 62.6443 61.816 62.6016 61.496C62.5589 61.1546 62.6443 60.792 62.8576 60.408L74.6656 39.9279C74.8789 39.5439 75.1349 39.2879 75.4336 39.16C75.7536 39.032 76.0629 39.0106 76.3616 39.0959C76.6603 39.1599 76.9163 39.3093 77.1296 39.544C77.3429 39.7786 77.4709 40.0666 77.5136 40.4079C77.5776 40.728 77.5029 41.0693 77.2896 41.4319L65.4816 61.944ZM62.0576 53.112C60.2656 53.112 58.8683 52.4933 57.8656 51.256C56.8629 50.0186 56.3616 48.3333 56.3616 46.2C56.3616 44.7706 56.5856 43.544 57.0336 42.52C57.4816 41.496 58.1323 40.7066 58.9856 40.152C59.8389 39.5973 60.8629 39.32 62.0576 39.32C63.8496 39.32 65.2469 39.9386 66.2496 41.176C67.2523 42.392 67.7536 44.0666 67.7536 46.2C67.7536 47.6293 67.5296 48.8666 67.0816 49.912C66.6336 50.936 65.9829 51.7253 65.1296 52.28C64.2763 52.8346 63.2523 53.112 62.0576 53.112ZM62.0576 50.424C62.5696 50.424 63.0069 50.2746 63.3696 49.976C63.7323 49.656 64.0096 49.1866 64.2016 48.568C64.3936 47.9493 64.4896 47.16 64.4896 46.2C64.4896 44.7706 64.2763 43.7146 63.8496 43.0319C63.4229 42.3493 62.8256 42.0079 62.0576 42.0079C61.5456 42.0079 61.1083 42.1573 60.7456 42.4559C60.3829 42.7546 60.1056 43.2133 59.9136 43.832C59.7216 44.4506 59.6256 45.24 59.6256 46.2C59.6256 47.6506 59.8389 48.7173 60.2656 49.4C60.6923 50.0826 61.2896 50.424 62.0576 50.424ZM78.1216 62.52C76.3296 62.52 74.9323 61.9013 73.9296 60.664C72.9269 59.4266 72.4256 57.7413 72.4256 55.608C72.4256 54.1786 72.6496 52.952 73.0976 51.928C73.5456 50.904 74.1963 50.1146 75.0496 49.56C75.9029 49.0053 76.9269 48.728 78.1216 48.728C79.9136 48.728 81.3109 49.3466 82.3136 50.584C83.3163 51.8 83.8176 53.4746 83.8176 55.608C83.8176 57.0373 83.5936 58.2746 83.1456 59.32C82.6976 60.344 82.0469 61.1333 81.1936 61.688C80.3403 62.2426 79.3163 62.52 78.1216 62.52ZM78.1216 59.832C78.6336 59.832 79.0709 59.6826 79.4336 59.384C79.7963 59.0853 80.0736 58.6266 80.2656 58.008C80.4576 57.368 80.5536 56.568 80.5536 55.608C80.5536 54.1786 80.3403 53.1226 79.9136 52.44C79.4869 51.7573 78.8896 51.416 78.1216 51.416C77.6096 51.416 77.1723 51.5653 76.8096 51.864C76.4469 52.1626 76.1696 52.6213 75.9776 53.24C75.7856 53.8586 75.6896 54.648 75.6896 55.608C75.6896 57.0586 75.9029 58.1253 76.3296 58.808C76.7563 59.4906 77.3536 59.832 78.1216 59.832Z" fill="#96C300"/>
</svg>
